<?xml version="1.0" standalone="no"?>
<!DOCTYPE svg PUBLIC "-//W3C//DTD SVG 20010904//EN"
 "http://www.w3.org/TR/2001/REC-SVG-20010904/DTD/svg10.dtd">
<svg version="1.0" xmlns="http://www.w3.org/2000/svg"
 width="576.000000pt" height="576.000000pt" viewBox="0 0 576.000000 576.000000"
 preserveAspectRatio="xMidYMid meet">

<g transform="translate(0.000000,576.000000) scale(0.100000,-0.100000)"
fill="#000000" stroke="none">
<path d="M240 5750 c0 -5 5 -10 11 -10 5 0 7 5 4 10 -3 6 -8 10 -11 10 -2 0
-4 -4 -4 -10z"/>
<path d="M706 5752 c-7 -12 40 -29 51 -18 4 3 -3 6 -14 6 -12 0 -23 5 -25 12
-3 9 -6 9 -12 0z"/>
<path d="M785 5750 c-3 -5 -1 -10 4 -10 6 0 11 5 11 10 0 6 -2 10 -4 10 -3 0
-8 -4 -11 -10z"/>
<path d="M845 5750 c4 -6 11 -8 16 -5 14 9 11 15 -7 15 -8 0 -12 -5 -9 -10z"/>
<path d="M938 5738 c10 -38 30 -50 95 -55 34 -2 63 -8 65 -13 2 -6 15 -7 28
-4 18 5 24 2 24 -11 0 -11 7 -16 23 -14 39 6 66 -25 30 -34 -12 -3 -9 -5 8 -6
15 0 43 6 62 14 23 9 38 11 42 5 3 -6 1 -10 -4 -10 -6 0 -11 -7 -11 -15 0 -18
17 -20 22 -3 6 18 28 0 28 -23 0 -12 5 -17 10 -14 6 4 17 1 25 -5 9 -8 28 -10
46 -6 25 5 30 3 25 -9 -7 -20 23 -35 49 -25 19 7 21 5 17 -16 -4 -20 0 -24 20
-24 13 0 34 -9 46 -20 11 -11 27 -17 35 -14 9 3 24 -6 36 -22 20 -26 21 -26
21 -5 0 13 4 19 11 16 6 -4 8 -13 5 -20 -3 -8 2 -19 10 -25 11 -10 14 -8 14
10 0 13 5 20 13 17 6 -2 11 -14 9 -25 -3 -19 2 -22 35 -23 l38 -2 -40 -6 c-36
-6 -38 -7 -15 -14 14 -3 36 -7 50 -7 29 -1 53 -17 63 -44 5 -12 14 -17 27 -13
13 3 20 0 20 -9 0 -8 7 -14 15 -14 9 0 25 -9 37 -20 12 -11 28 -20 35 -20 7 0
13 -7 13 -16 0 -11 6 -14 20 -9 17 5 21 1 26 -24 4 -18 11 -28 19 -25 7 3 19
-2 28 -10 9 -9 23 -16 31 -16 9 0 16 -7 16 -15 0 -8 7 -15 15 -15 8 0 25 -10
37 -22 20 -20 23 -21 26 -5 2 9 8 14 14 10 7 -4 9 -1 6 9 -4 8 0 15 8 15 14 0
12 -7 -23 -53 -21 -28 -22 -33 -8 -44 13 -11 12 -15 -12 -34 -28 -21 -33 -31
-38 -73 -2 -15 2 -23 11 -23 13 0 18 12 15 33 0 4 4 7 10 7 6 0 8 -7 5 -16 -3
-9 -9 -28 -11 -42 -6 -26 -5 -26 10 3 12 24 14 25 11 7 -2 -13 4 -53 15 -89
19 -67 37 -103 23 -48 l-7 30 24 -22 c13 -12 29 -36 36 -53 10 -26 9 -30 -7
-30 -33 0 -43 -26 -36 -94 10 -101 34 -167 74 -209 31 -32 42 -38 70 -35 32 4
33 3 48 -51 8 -31 24 -78 35 -105 27 -69 28 -270 1 -295 -9 -9 -46 -48 -81
-88 -108 -123 -144 -145 -331 -203 -200 -62 -310 -99 -455 -155 -60 -24 -122
-45 -136 -49 -36 -8 -54 -49 -93 -221 -96 -415 -167 -951 -225 -1690 -16 -198
-29 -343 -30 -322 -1 26 -6 37 -16 37 -8 0 -15 5 -15 10 0 6 5 10 10 10 6 0
10 5 10 11 0 5 -4 8 -9 5 -16 -10 -40 5 -34 21 5 12 1 14 -14 9 -14 -5 -23 0
-33 19 -7 14 -21 25 -31 25 -28 0 -49 11 -49 25 0 8 -18 21 -40 31 -22 10 -40
24 -40 31 0 7 -11 13 -24 13 -27 0 -56 24 -56 46 0 17 -20 19 -20 2 -1 -8 -6
-6 -14 5 -8 10 -18 17 -22 16 -5 -1 -16 -1 -24 1 -11 1 -9 4 5 10 18 7 17 8
-10 15 -16 4 -38 16 -48 26 -10 11 -24 19 -32 19 -8 0 -15 5 -15 10 0 6 -10
10 -23 10 -13 0 -37 15 -56 36 -23 24 -36 32 -41 24 -6 -9 -14 -8 -35 3 -18 9
-24 17 -16 21 17 11 13 26 -5 19 -17 -6 -63 14 -80 36 -13 17 -29 -2 -18 -21
6 -10 4 -10 -8 0 -9 7 -14 22 -11 35 4 21 4 22 -11 3 -14 -17 -16 -18 -16 -3
0 12 -12 19 -42 24 -38 6 -40 8 -18 13 24 7 24 8 5 15 -11 5 -41 30 -66 57
-26 26 -52 48 -58 48 -7 0 -9 5 -6 11 4 6 14 8 22 5 11 -5 13 -2 9 10 -3 8 -6
18 -6 20 0 2 -13 4 -29 4 -27 0 -30 3 -29 30 1 17 -4 36 -10 42 -7 7 -12 20
-12 29 0 10 -6 20 -12 22 -7 3 -3 6 10 6 27 1 28 9 5 28 -10 7 -13 13 -8 12
32 -4 38 1 22 19 -10 10 -17 26 -17 35 0 9 -4 17 -10 17 -5 0 -10 5 -10 11 0
6 6 9 13 6 9 -3 13 7 12 37 0 22 -3 46 -7 51 -4 6 -3 17 3 25 5 8 8 24 8 35 0
11 -3 15 -5 8 -6 -13 -34 -6 -34 8 0 5 8 9 18 9 9 0 13 4 7 8 -5 4 -10 25 -9
47 0 22 -4 55 -10 73 -8 27 -8 35 4 43 12 7 10 10 -9 16 -22 6 -22 7 -7 19 16
11 15 14 -9 38 -14 14 -28 26 -30 26 -3 0 -5 -583 -5 -1295 l0 -1295 2224 0
2223 0 7 153 c16 378 18 656 7 962 -6 182 -16 458 -21 614 -11 291 -39 699
-65 921 -16 136 -25 232 -18 186 4 -23 7 -27 14 -15 8 10 9 9 4 -8 -8 -29 4
-75 18 -66 6 4 8 0 4 -10 -4 -11 -2 -14 8 -11 9 4 16 -3 21 -20 4 -17 13 -26
25 -26 10 0 19 -7 19 -15 0 -9 7 -18 16 -22 8 -3 20 -17 25 -32 8 -20 12 -22
19 -11 8 12 10 12 10 -4 0 -12 5 -16 15 -12 8 3 15 1 15 -4 0 -6 -5 -10 -12
-10 -6 0 16 -27 50 -60 43 -42 67 -58 79 -54 15 5 16 4 3 -5 -13 -10 -13 -13
2 -25 10 -7 15 -16 11 -19 -3 -4 -1 -7 5 -7 23 0 82 -66 88 -98 4 -21 10 -30
16 -24 6 6 21 -2 41 -21 19 -19 27 -32 19 -35 -14 -4 -16 -22 -2 -22 5 0 12
11 16 25 3 14 10 25 15 25 5 0 6 -12 3 -26 -5 -20 -4 -25 5 -19 8 4 14 -1 18
-15 4 -15 11 -20 25 -17 15 4 18 1 13 -14 -5 -15 -1 -19 17 -19 21 -1 21 -2 5
-11 -24 -14 -5 -39 29 -39 20 0 24 -5 25 -32 1 -24 3 -27 6 -10 6 29 23 19 23
-14 0 -18 5 -24 20 -24 14 0 20 -6 18 -18 -2 -9 2 -16 8 -15 6 1 22 -9 34 -22
13 -14 31 -25 39 -25 9 0 24 -14 33 -30 16 -29 16 -30 -2 -30 -11 0 -20 -5
-20 -11 0 -5 5 -7 11 -4 17 11 78 -24 94 -55 9 -17 20 -30 25 -30 5 0 12 -9
15 -20 4 -11 11 -18 16 -15 8 5 14 -24 10 -47 -2 -12 17 -10 21 2 2 5 12 7 24
4 16 -4 20 -11 16 -30 -4 -21 -1 -24 28 -24 23 0 31 -4 27 -13 -8 -22 9 -40
37 -40 14 1 26 -3 26 -8 0 -5 -4 -9 -9 -9 -5 0 -11 -11 -13 -25 -6 -28 -4 -29
22 -15 10 5 26 7 35 3 14 -5 12 -8 -11 -19 -25 -11 -26 -12 -7 -13 33 -1 52
-11 47 -25 -7 -18 22 -39 46 -33 21 5 28 -7 10 -18 -17 -11 -11 -20 21 -32 20
-8 28 -16 23 -24 -5 -9 -2 -10 10 -6 10 4 22 7 27 7 5 0 9 869 9 2195 l0 2195
-2414 0 -2414 0 6 -22z m42 -13 c0 -8 -4 -15 -10 -15 -5 0 -10 7 -10 15 0 8 5
15 10 15 6 0 10 -7 10 -15z m62 -2 c4 -14 -2 -18 -22 -19 -25 -1 -26 0 -11 17
21 23 28 23 33 2z m333 -133 c3 -5 1 -10 -4 -10 -6 0 -11 5 -11 10 0 6 2 10 4
10 3 0 8 -4 11 -10z m405 -204 c0 -3 -4 -8 -10 -11 -5 -3 -10 -1 -10 4 0 6 5
11 10 11 6 0 10 -2 10 -4z m1294 -237 c11 0 50 -27 87 -60 60 -53 70 -68 90
-127 12 -36 35 -89 52 -116 28 -49 29 -54 29 -186 0 -145 -7 -227 -22 -245 -5
-6 -5 -16 2 -25 8 -12 9 -12 4 2 -3 10 -1 20 4 23 5 3 14 30 21 60 9 42 16 55
31 55 10 0 18 5 18 10 0 6 -7 10 -16 10 -14 0 -16 8 -11 41 7 52 14 59 65 66
38 5 42 3 48 -21 6 -25 -7 -123 -26 -196 -11 -40 -62 -97 -99 -112 -20 -7 -28
-5 -37 7 -10 13 -13 5 -19 -47 -9 -80 -44 -158 -85 -189 -18 -13 -47 -39 -65
-57 -60 -61 -113 -82 -202 -80 -112 2 -193 41 -193 94 0 13 -5 26 -10 29 -6 4
-8 11 -4 16 3 5 -5 26 -17 46 -22 35 -22 36 -4 49 10 8 24 14 29 14 6 0 5 -4
-2 -8 -17 -11 11 -79 35 -85 60 -15 183 1 183 24 0 5 -22 9 -50 9 -33 0 -50 4
-50 13 0 6 -14 20 -31 30 -18 10 -30 20 -27 22 2 3 57 6 122 6 64 1 114 5 109
9 -38 32 -67 49 -76 43 -14 -9 -77 -11 -71 -2 10 17 -29 31 -71 26 -42 -4 -45
-3 -39 15 5 17 3 19 -18 13 -12 -4 -35 -13 -49 -19 -24 -12 -29 -10 -60 23
-54 56 -99 127 -115 182 -24 80 -22 82 84 95 51 6 99 17 105 24 10 10 5 11
-20 5 -20 -4 -33 -3 -33 4 0 5 -12 12 -27 14 -25 4 -25 4 5 6 25 1 35 6 39 21
7 25 18 25 35 2 15 -20 48 -36 48 -23 0 5 -13 22 -28 39 -21 22 -40 31 -78 36
-67 10 -87 22 -54 34 34 13 88 4 135 -21 34 -19 41 -29 49 -68 7 -35 5 -53 -7
-80 -9 -19 -21 -55 -26 -80 -6 -25 -17 -58 -26 -75 -8 -16 -15 -36 -15 -44 0
-20 35 -41 54 -34 11 4 14 0 11 -13 -2 -11 1 -26 6 -34 7 -11 9 -10 9 5 0 15
3 16 15 6 17 -14 21 0 4 17 -7 7 0 13 28 18 21 3 46 14 55 22 12 11 27 13 53
9 27 -5 35 -4 35 7 0 21 -26 28 -54 15 -14 -6 -40 -8 -59 -4 -55 10 -61 37
-42 183 16 118 16 124 -2 159 -15 30 -29 40 -83 60 -35 12 -81 26 -102 29 -45
8 -55 20 -35 43 15 18 41 94 51 150 3 18 19 47 36 65 28 30 33 32 104 32 41 0
79 5 85 10 5 6 45 9 88 7 43 -1 87 -2 97 -3z m-274 -683 c0 -8 -4 -17 -9 -21
-12 -7 -24 12 -16 25 9 15 25 12 25 -4z m426 -711 c-25 -43 -170 -186 -258
-256 -69 -54 -93 -52 -165 12 -67 60 -170 163 -133 134 l24 -20 -16 25 c-18
29 -8 70 17 70 15 0 27 -11 71 -67 25 -32 54 -44 54 -23 0 6 -4 10 -9 10 -5 0
-11 7 -15 15 -3 8 0 14 7 12 7 -1 13 5 13 13 1 8 2 22 3 31 1 11 9 14 31 11
36 -5 37 0 9 45 -12 18 -18 40 -15 48 6 17 119 73 212 105 56 20 68 29 125
101 l64 79 3 -151 c2 -145 2 -153 -22 -194z m69 62 c4 4 5 3 2 -3 -7 -13 59
-75 69 -65 4 3 5 -1 2 -9 -3 -8 1 -20 8 -27 17 -17 25 -16 18 2 -4 8 -1 15 4
15 6 0 13 -8 15 -17 2 -10 3 -6 2 10 -2 36 12 35 17 -2 3 -23 -1 -32 -16 -40
-21 -10 -21 -10 1 -7 12 1 26 5 29 9 4 4 13 2 21 -4 7 -6 22 -9 32 -6 14 3 18
1 14 -10 -3 -9 -12 -11 -22 -7 -23 10 -71 13 -71 5 0 -4 11 -14 25 -21 24 -13
34 -30 17 -30 -4 0 -36 29 -71 64 -41 42 -61 68 -56 77 5 7 4 10 -2 6 -13 -8
-59 41 -67 73 l-7 25 14 -23 c7 -12 17 -19 22 -15z m49 -22 c11 -8 15 -15 10
-15 -6 0 -19 7 -30 15 -10 8 -14 14 -9 14 6 0 19 -6 29 -14z m137 -148 c9 -7
15 -20 13 -29 -1 -10 3 -21 8 -25 7 -3 8 -1 4 5 -4 7 -3 12 3 12 6 0 9 6 7 13
-1 6 -1 9 1 4 3 -4 9 -5 14 -2 5 4 6 -1 3 -9 -3 -9 -1 -16 5 -16 6 0 11 5 11
10 0 6 5 10 10 10 6 0 10 -7 10 -16 0 -12 7 -14 33 -10 22 4 26 3 12 -3 -18
-7 -16 -9 13 -15 18 -4 30 -11 27 -16 -3 -5 -17 -2 -32 5 -15 8 -31 11 -36 8
-13 -8 62 -33 82 -26 13 4 13 3 2 -5 -11 -8 -5 -13 28 -22 23 -6 47 -8 53 -4
6 4 8 3 5 -3 -4 -7 16 -20 48 -34 30 -12 53 -24 51 -26 -2 -2 -21 3 -42 12
-22 10 -102 39 -179 67 -145 51 -169 63 -158 81 3 5 -5 18 -18 28 -16 12 -19
19 -9 18 8 0 22 -5 31 -12z m439 -213 c23 -9 39 -18 37 -20 -2 -3 -24 4 -48
15 -54 24 -45 27 11 5z m80 -34 c8 -5 11 -10 5 -10 -5 0 -17 5 -25 10 -8 5
-10 10 -5 10 6 0 17 -5 25 -10z m50 -20 c8 -5 11 -10 5 -10 -5 0 -17 5 -25 10
-8 5 -10 10 -5 10 6 0 17 -5 25 -10z m277 -372 c-3 -8 -6 -5 -6 6 -1 11 2 17
5 13 3 -3 4 -12 1 -19z m10 -50 c-3 -7 -5 -2 -5 12 0 14 2 19 5 13 2 -7 2 -19
0 -25z m10 -65 c-3 -10 -5 -2 -5 17 0 19 2 27 5 18 2 -10 2 -26 0 -35z m163
-233 c0 -5 -5 -10 -11 -10 -5 0 -7 5 -4 10 3 6 8 10 11 10 2 0 4 -4 4 -10z
m-4340 -885 c0 -5 -5 -3 -10 5 -5 8 -10 20 -10 25 0 6 5 3 10 -5 5 -8 10 -19
10 -25z m1670 -133 c0 -44 -29 -405 -35 -429 -3 -12 -9 -62 -14 -112 -9 -79
-47 -218 -58 -208 -2 2 1 26 7 53 32 159 79 550 80 657 0 38 4 67 10 67 6 0
10 -12 10 -28z m2025 -402 c9 -107 21 -217 26 -244 10 -54 12 -143 3 -134 -8
9 -32 168 -49 325 -16 155 -20 407 -4 303 4 -30 15 -143 24 -250z"/>
<path d="M3127 4854 c-2 -2 -21 -6 -43 -10 -50 -7 -140 -49 -147 -68 -8 -22
11 -30 30 -14 12 9 15 9 9 0 -4 -6 10 -2 31 10 33 20 52 23 145 23 103 0 106
1 90 18 -9 11 -25 23 -34 28 -18 10 -75 19 -81 13z"/>
<path d="M3034 4741 c-12 -5 -25 -14 -28 -19 -3 -6 -16 -8 -29 -6 -12 2 -16 2
-9 -2 6 -3 10 -10 6 -15 -3 -5 2 -9 10 -9 10 0 13 -6 9 -17 -5 -13 -2 -15 11
-10 10 4 20 7 22 7 2 0 4 7 4 15 0 8 4 15 9 15 5 0 14 -7 21 -15 19 -23 48
-18 64 12 l14 28 13 -28 c13 -28 19 -31 57 -21 31 9 28 17 -18 43 -44 24 -124
36 -156 22z"/>
<path d="M3016 4651 c5 -5 23 -12 39 -16 30 -6 30 -6 -4 10 -38 17 -49 19 -35
6z"/>
<path d="M3435 4620 c-3 -5 -4 -10 -1 -10 2 0 11 -3 20 -6 11 -4 16 -1 16 10
0 18 -25 22 -35 6z"/>
<path d="M2755 4340 c-3 -6 1 -7 9 -4 18 7 21 14 7 14 -6 0 -13 -4 -16 -10z"/>
<path d="M892 5721 c2 -7 7 -12 11 -12 12 1 9 15 -3 20 -7 2 -11 -2 -8 -8z"/>
<path d="M1355 5530 c-4 -6 1 -7 12 -3 15 6 16 5 5 -9 -11 -14 -10 -16 7 -11
12 3 17 11 14 19 -6 16 -29 19 -38 4z"/>
<path d="M2201 5024 c0 -11 3 -14 6 -6 3 7 2 16 -1 19 -3 4 -6 -2 -5 -13z"/>
<path d="M4391 2694 c0 -11 3 -14 6 -6 3 7 2 16 -1 19 -3 4 -6 -2 -5 -13z"/>
<path d="M8 2653 c7 -3 16 -2 19 1 4 3 -2 6 -13 5 -11 0 -14 -3 -6 -6z"/>
<path d="M0 2620 c0 -5 5 -10 10 -10 6 0 10 5 10 10 0 6 -4 10 -10 10 -5 0
-10 -4 -10 -10z"/>
<path d="M4935 2149 c-4 -6 -5 -12 -2 -15 2 -3 7 2 10 11 7 17 1 20 -8 4z"/>
<path d="M95 2100 c-3 -5 1 -10 9 -10 9 0 16 5 16 10 0 6 -4 10 -9 10 -6 0
-13 -4 -16 -10z"/>
<path d="M90 1989 c0 -11 4 -18 10 -14 5 3 7 12 3 20 -7 21 -13 19 -13 -6z"/>
<path d="M151 1994 c0 -11 3 -14 6 -6 3 7 2 16 -1 19 -3 4 -6 -2 -5 -13z"/>
<path d="M145 1920 c3 -5 8 -10 11 -10 2 0 4 5 4 10 0 6 -5 10 -11 10 -5 0 -7
-4 -4 -10z"/>
<path d="M5265 1810 c3 -5 8 -10 11 -10 2 0 4 5 4 10 0 6 -5 10 -11 10 -5 0
-7 -4 -4 -10z"/>
<path d="M860 1390 c0 -5 5 -10 10 -10 6 0 10 5 10 10 0 6 -4 10 -10 10 -5 0
-10 -4 -10 -10z"/>
<path d="M5735 1340 c3 -5 10 -10 16 -10 5 0 9 5 9 10 0 6 -7 10 -16 10 -8 0
-12 -4 -9 -10z"/>
</g>
</svg>
